<svg id="Layer_1" data-name="Layer 1" xmlns="http://www.w3.org/2000/svg" xmlns:xlink="http://www.w3.org/1999/xlink" viewBox="0 0 52 52"><defs><style>.cls-1,.cls-3{fill:none;}.cls-2{clip-path:url(#clip-path);}.cls-3{stroke:#fff;stroke-miterlimit:10;stroke-width:4px;}.cls-4{fill:#fff;}.cls-5{fill:#b3b3b3;}.cls-6{fill:#4d4d4d;}</style><clipPath id="clip-path" transform="translate(-6.89 -6.39)"><circle class="cls-1" cx="32.89" cy="32.39" r="24"/></clipPath></defs><title>Large iVan</title><g id="Group_23" data-name="Group 23"><g class="cls-2"><g id="Group_21" data-name="Group 21"><circle id="Ellipse_1" data-name="Ellipse 1" class="cls-3" cx="26" cy="26" r="24"/><g id="Group_20" data-name="Group 20"><g id="Group_12" data-name="Group 12"><path id="Path_88" data-name="Path 88" class="cls-4" d="M37.58,22.48A2.54,2.54,0,1,0,40.11,25,2.55,2.55,0,0,0,37.58,22.48Zm0,4.17A1.64,1.64,0,1,1,39.21,25a1.64,1.64,0,0,1-1.63,1.63Z" transform="translate(-6.89 -6.39)"/><path id="Path_89" data-name="Path 89" class="cls-4" d="M30.74,25a2.53,2.53,0,1,0-2.53,2.54A2.53,2.53,0,0,0,30.74,25Zm-2.53,1.64A1.64,1.64,0,1,1,29.84,25,1.65,1.65,0,0,1,28.21,26.65Z" transform="translate(-6.89 -6.39)"/><path id="Path_90" data-name="Path 90" class="cls-4" d="M28.75,29.26a4.14,4.14,0,1,0,8.28,0v-.45H28.75Zm7.35.45a3.24,3.24,0,0,1-6.41,0Z" transform="translate(-6.89 -6.39)"/></g><g id="Group_13" data-name="Group 13"><path id="Path_91" data-name="Path 91" class="cls-4" d="M47.21,39.07H45.84V39a1.5,1.5,0,0,0-1.5-1.49l-9.43,0v.9l9.43,0a.58.58,0,0,1,.59.59v16.6h.9V40H47.2a1.37,1.37,0,0,1,1.37,1.37V55.51h.9V41.34A2.27,2.27,0,0,0,47.21,39.07Z" transform="translate(-6.89 -6.39)"/><path id="Path_92" data-name="Path 92" class="cls-4" d="M21.44,37.58A1.49,1.49,0,0,0,20,39.07H18.58a2.27,2.27,0,0,0-2.27,2.27V55.57h.9V41.34A1.37,1.37,0,0,1,18.58,40H20v15.6h.9V39.07a.58.58,0,0,1,.59-.59l3.78,0v-.9Z" transform="translate(-6.89 -6.39)"/><path id="Path_93" data-name="Path 93" class="cls-4" d="M45.83,35.43v-1h-.9v1a.07.07,0,0,1-.06.07H28.94V39L26,35.5h-5a.07.07,0,0,1-.07-.07V19.81a.07.07,0,0,1,.07-.07H44.86a.07.07,0,0,1,.07.07h0v12h.9V30.67H47v2.22H38.1v.9h9.82V30.67H48a1,1,0,0,0,1-1V25.53a1,1,0,0,0-1-1h-.07V18.78a2.63,2.63,0,0,0-2.54-2.71h-25a2.62,2.62,0,0,0-2.53,2.71v5.78H17.8a1,1,0,0,0-1,1V29.7a1,1,0,0,0,1,1H20v4.76a1,1,0,0,0,1,1h4.62L28.66,40h1.18V36.4h15A1,1,0,0,0,45.83,35.43Zm2.23-9.89V29.7a.08.08,0,0,1-.07.07H45.83v-4.3H48a.09.09,0,0,1,.07.06ZM18.77,18.79A1.72,1.72,0,0,1,20.4,17h25A1.72,1.72,0,0,1,47,18.79v5.78H45.83V19.81a1,1,0,0,0-1-1H20.92a1,1,0,0,0-1,1v4.76H18.77Zm-1,11a.07.07,0,0,1-.07-.07V25.54a.07.07,0,0,1,.07-.07H20v4.3Z" transform="translate(-6.89 -6.39)"/></g><path id="Path_94" data-name="Path 94" class="cls-4" d="M35.69,37.42l-5.5,0,1.17,3.43-1.09,7.21L33,50.66l2.68-2.58-1.2-7.2Z" transform="translate(-6.89 -6.39)"/><g id="Group_14" data-name="Group 14"><path id="Path_95" data-name="Path 95" class="cls-5" d="M31.81,49.56l-.32-.3,3.74-3.58.09.52Z" transform="translate(-6.89 -6.39)"/></g><g id="Group_15" data-name="Group 15"><path id="Path_96" data-name="Path 96" class="cls-6" d="M31.49,49.26,31.18,49l4-3.81.09.52Z" transform="translate(-6.89 -6.39)"/></g><g id="Group_16" data-name="Group 16"><path id="Path_97" data-name="Path 97" class="cls-5" d="M30.37,47.32l.11-.71,4.23-4,.09.51Z" transform="translate(-6.89 -6.39)"/></g><g id="Group_17" data-name="Group 17"><path id="Path_98" data-name="Path 98" class="cls-6" d="M30.48,46.61l.11-.7,4-3.88.09.53Z" transform="translate(-6.89 -6.39)"/></g><g id="Group_18" data-name="Group 18"><path id="Path_99" data-name="Path 99" class="cls-5" d="M31.06,42.83l.11-.71,1.36-1.3h.63Z" transform="translate(-6.89 -6.39)"/></g><g id="Group_19" data-name="Group 19"><path id="Path_100" data-name="Path 100" class="cls-6" d="M31.17,42.12l.1-.7.63-.6h.63Z" transform="translate(-6.89 -6.39)"/></g></g></g></g></g></svg>